<svg xmlns="http://www.w3.org/2000/svg" xmlns:xlink="http://www.w3.org/1999/xlink" width="500" zoomAndPan="magnify" viewBox="0 0 375 374.999991" height="500" preserveAspectRatio="xMidYMid meet" version="1.0"><defs><g/><clipPath id="id1"><path d="M 0 172.769531 L 375 172.769531 L 375 202.019531 L 0 202.019531 Z M 0 172.769531 " clip-rule="nonzero"/></clipPath></defs><g fill="#000000" fill-opacity="1"><g transform="translate(36.681838, 269.783918)"><g><path d="M 25.03125 0 L 25.03125 -164.53125 L 119.46875 -164.53125 L 119.46875 -155.421875 L 33.90625 -155.421875 L 33.90625 -87.84375 L 113.546875 -87.84375 L 113.546875 -78.515625 L 33.90625 -78.515625 L 33.90625 -9.5625 L 122.65625 -9.328125 L 122.65625 0 Z M 25.03125 0 "/></g></g></g><g fill="#000000" fill-opacity="1"><g transform="translate(164.914985, 269.783918)"><g><path d="M 139.5 -81.015625 L 33.90625 -81.015625 L 33.90625 0 L 25.03125 0 L 25.03125 -164.53125 L 33.90625 -164.53125 L 33.90625 -90.34375 L 139.5 -90.34375 L 139.5 -164.53125 L 148.375 -164.53125 L 148.375 0 L 139.5 0 Z M 139.5 -81.015625 "/></g></g></g><g clip-path="url(#id1)"><path fill="#ffffff" d="M 0.0195312 172.769531 L 374.980469 172.769531 L 374.980469 202.019531 L 0.0195312 202.019531 L 0.0195312 172.769531 " fill-opacity="1" fill-rule="nonzero"/></g><g fill="#000000" fill-opacity="1"><g transform="translate(72.222923, 195.345866)"><g><path d="M 2.03125 0 L 2.03125 -15.328125 L 11.6875 -15.328125 L 11.6875 -13.609375 L 4 -13.609375 L 4 -8.59375 L 10.921875 -8.59375 L 10.921875 -6.875 L 3.984375 -6.875 L 3.984375 -1.765625 L 11.890625 -1.75 L 11.890625 0 Z M 2.03125 0 "/></g></g></g><g fill="#000000" fill-opacity="1"><g transform="translate(102.347845, 195.345866)"><g><path d="M 13.71875 0 L 11.296875 0 L 7.140625 -6.3125 L 3.046875 0 L 0.875 0 L 6.078125 -7.828125 L 1.0625 -15.328125 L 3.484375 -15.328125 L 7.296875 -9.484375 L 11.078125 -15.328125 L 13.234375 -15.328125 L 8.34375 -8.03125 Z M 13.71875 0 "/></g></g></g><g fill="#000000" fill-opacity="1"><g transform="translate(133.903713, 195.345866)"><g><path d="M 0.875 0 L 6.421875 -15.328125 L 8.640625 -15.328125 L 14.1875 0 L 12.1875 0 L 10.671875 -4.203125 L 4.40625 -4.203125 L 2.875 0 Z M 4.90625 -6 L 10.15625 -6 L 7.546875 -13.390625 Z M 4.90625 -6 "/></g></g></g><g fill="#000000" fill-opacity="1"><g transform="translate(165.925951, 195.345866)"><g><path d="M 2.03125 0 L 2.03125 -15.328125 L 4.734375 -15.328125 L 9.359375 -2.671875 L 14.046875 -15.328125 L 16.75 -15.328125 L 16.75 0 L 14.71875 0 L 14.71875 -12.390625 L 10.28125 0 L 8.453125 0 L 4.046875 -12.28125 L 4.046875 0 Z M 2.03125 0 "/></g></g></g><g fill="#000000" fill-opacity="1"><g transform="translate(201.668639, 195.345866)"><g/></g></g><g fill="#000000" fill-opacity="1"><g transform="translate(223.525915, 195.345866)"><g><path d="M 12.25 -7.078125 L 3.984375 -7.078125 L 3.984375 0 L 2.03125 0 L 2.03125 -15.328125 L 3.984375 -15.328125 L 3.984375 -8.796875 L 12.25 -8.796875 L 12.25 -15.328125 L 14.21875 -15.328125 L 14.21875 0 L 12.25 0 Z M 12.25 -7.078125 "/></g></g></g><g fill="#000000" fill-opacity="1"><g transform="translate(256.735305, 195.345866)"><g><path d="M 13.234375 -5.296875 C 13.234375 -4.117188 13.035156 -3.117188 12.640625 -2.296875 C 12.253906 -1.484375 11.648438 -0.859375 10.828125 -0.421875 C 10.003906 0.00390625 8.9375 0.21875 7.625 0.21875 C 6.289062 0.21875 5.210938 0 4.390625 -0.4375 C 3.566406 -0.882812 2.96875 -1.53125 2.59375 -2.375 C 2.21875 -3.21875 2.03125 -4.257812 2.03125 -5.5 L 2.03125 -15.328125 L 4.0625 -15.328125 L 4.0625 -5.203125 C 4.0625 -3.960938 4.367188 -3.035156 4.984375 -2.421875 C 5.597656 -1.804688 6.476562 -1.5 7.625 -1.5 C 8.394531 -1.5 9.050781 -1.632812 9.59375 -1.90625 C 10.132812 -2.175781 10.546875 -2.582031 10.828125 -3.125 C 11.117188 -3.675781 11.265625 -4.367188 11.265625 -5.203125 L 11.265625 -15.328125 L 13.234375 -15.328125 Z M 13.234375 -5.296875 "/></g></g></g><g fill="#000000" fill-opacity="1"><g transform="translate(288.556161, 195.345866)"><g><path d="M 2.03125 0 L 2.03125 -15.328125 L 6.953125 -15.328125 C 8.816406 -15.328125 10.226562 -14.984375 11.1875 -14.296875 C 12.144531 -13.609375 12.625 -12.617188 12.625 -11.328125 C 12.625 -10.515625 12.410156 -9.816406 11.984375 -9.234375 C 11.566406 -8.660156 10.832031 -8.1875 9.78125 -7.8125 C 10.382812 -7.6875 10.890625 -7.503906 11.296875 -7.265625 C 11.710938 -7.023438 12.046875 -6.742188 12.296875 -6.421875 C 12.546875 -6.097656 12.726562 -5.738281 12.84375 -5.34375 C 12.957031 -4.957031 13.015625 -4.550781 13.015625 -4.125 C 13.015625 -2.738281 12.519531 -1.703125 11.53125 -1.015625 C 10.539062 -0.335938 9.066406 0 7.109375 0 Z M 3.984375 -1.625 L 7.09375 -1.625 C 8.375 -1.625 9.347656 -1.832031 10.015625 -2.25 C 10.679688 -2.675781 11.015625 -3.328125 11.015625 -4.203125 C 11.015625 -4.847656 10.847656 -5.367188 10.515625 -5.765625 C 10.191406 -6.171875 9.75 -6.460938 9.1875 -6.640625 C 8.632812 -6.828125 8.015625 -6.921875 7.328125 -6.921875 L 3.984375 -6.921875 Z M 3.984375 -8.59375 L 7.328125 -8.59375 C 7.734375 -8.59375 8.132812 -8.628906 8.53125 -8.703125 C 8.925781 -8.785156 9.285156 -8.921875 9.609375 -9.109375 C 9.941406 -9.296875 10.210938 -9.550781 10.421875 -9.875 C 10.628906 -10.195312 10.734375 -10.601562 10.734375 -11.09375 C 10.734375 -11.976562 10.390625 -12.632812 9.703125 -13.0625 C 9.023438 -13.488281 8.140625 -13.703125 7.046875 -13.703125 L 3.984375 -13.703125 Z M 3.984375 -8.59375 "/></g></g></g></svg>