<svg xmlns="http://www.w3.org/2000/svg" xmlns:xlink="http://www.w3.org/1999/xlink" width="500" zoomAndPan="magnify" viewBox="0 0 375 374.999991" height="500" preserveAspectRatio="xMidYMid meet" version="1.0"><defs><clipPath id="id1"><path d="M 70.90625 57.226562 L 304.15625 57.226562 L 304.15625 317.476562 L 70.90625 317.476562 Z M 70.90625 57.226562 " clip-rule="nonzero"/></clipPath></defs><g clip-path="url(#id1)"><path fill="#0277bd" d="M 304.125 57.226562 L 70.9375 57.226562 L 91.511719 290.082031 L 187.53125 317.476562 L 283.550781 290.082031 Z M 304.125 57.226562 " fill-opacity="1" fill-rule="nonzero"/></g><path fill="#039be5" d="M 187.53125 77.773438 L 187.53125 296.246094 L 264.347656 274.332031 L 281.492188 77.773438 Z M 187.53125 77.773438 " fill-opacity="1" fill-rule="nonzero"/><path fill="#ffffff" d="M 249.941406 112.015625 L 187.53125 112.015625 L 187.53125 139.410156 L 221.136719 139.410156 L 219.082031 166.808594 L 187.53125 166.808594 L 187.53125 194.203125 L 217.707031 194.203125 L 215.652344 225.019531 L 187.53125 234.609375 L 187.53125 263.375 L 241.714844 245.566406 L 246.515625 166.808594 Z M 249.941406 112.015625 " fill-opacity="1" fill-rule="nonzero"/><path fill="#eeeeee" d="M 187.53125 112.015625 L 187.53125 139.410156 L 126.492188 139.410156 L 124.433594 112.015625 Z M 155.980469 166.808594 L 157.355469 194.203125 L 187.53125 194.203125 L 187.53125 166.808594 Z M 158.726562 207.898438 L 131.292969 207.898438 L 133.347656 245.566406 L 187.53125 263.375 L 187.53125 234.609375 L 159.410156 225.019531 Z M 158.726562 207.898438 " fill-opacity="1" fill-rule="nonzero"/></svg>