<svg xmlns="http://www.w3.org/2000/svg" xmlns:xlink="http://www.w3.org/1999/xlink" width="500" zoomAndPan="magnify" viewBox="0 0 375 374.999991" height="500" preserveAspectRatio="xMidYMid meet" version="1.0"><defs><clipPath id="id1"><path d="M 93.191406 106 L 281.441406 106 L 281.441406 320.75 L 93.191406 320.75 Z M 93.191406 106 " clip-rule="nonzero"/></clipPath><clipPath id="id2"><path d="M 110 54.5 L 146 54.5 L 146 91 L 110 91 Z M 110 54.5 " clip-rule="nonzero"/></clipPath><clipPath id="id3"><path d="M 150 54.5 L 184 54.5 L 184 91 L 150 91 Z M 150 54.5 " clip-rule="nonzero"/></clipPath><clipPath id="id4"><path d="M 189 54.5 L 230 54.5 L 230 91 L 189 91 Z M 189 54.5 " clip-rule="nonzero"/></clipPath><clipPath id="id5"><path d="M 235 54.5 L 265 54.5 L 265 91 L 235 91 Z M 235 54.5 " clip-rule="nonzero"/></clipPath></defs><g clip-path="url(#id1)"><path fill="#e44d26" d="M 281.386719 106.820312 L 264.253906 299.324219 L 187.234375 320.738281 L 110.429688 299.355469 L 93.3125 106.820312 L 281.390625 106.820312 Z M 281.386719 106.820312 " fill-opacity="1" fill-rule="nonzero"/></g><path fill="#f16529" d="M 187.351562 304.371094 L 249.589844 287.070312 L 264.230469 122.566406 L 187.351562 122.5625 Z M 187.351562 304.371094 " fill-opacity="1" fill-rule="nonzero"/><path fill="#ebebeb" d="M 154.042969 169.789062 L 187.351562 169.789062 L 187.351562 146.175781 L 128.3125 146.175781 L 128.875 152.511719 L 134.664062 217.582031 L 187.351562 217.582031 L 187.351562 193.976562 L 156.195312 193.976562 Z M 154.042969 169.789062 " fill-opacity="1" fill-rule="nonzero"/><path fill="#ebebeb" d="M 159.351562 229.390625 L 135.714844 229.390625 L 139.011719 266.472656 L 187.242188 279.898438 L 187.351562 279.867188 L 187.351562 255.300781 L 187.25 255.328125 L 161.027344 248.222656 Z M 159.351562 229.390625 " fill-opacity="1" fill-rule="nonzero"/><g clip-path="url(#id2)"><path fill="#000000" d="M 110.8125 54.5 L 122.777344 54.5 L 122.777344 66.355469 L 133.722656 66.355469 L 133.722656 54.5 L 145.6875 54.5 L 145.6875 90.402344 L 133.722656 90.402344 L 133.722656 78.378906 L 122.777344 78.378906 L 122.777344 90.402344 L 110.8125 90.402344 Z M 110.8125 54.5 " fill-opacity="1" fill-rule="nonzero"/></g><g clip-path="url(#id3)"><path fill="#000000" d="M 161.425781 66.40625 L 150.890625 66.40625 L 150.890625 54.5 L 183.929688 54.5 L 183.929688 66.40625 L 173.386719 66.40625 L 173.386719 90.402344 L 161.425781 90.402344 Z M 161.425781 66.40625 " fill-opacity="1" fill-rule="nonzero"/></g><g clip-path="url(#id4)"><path fill="#000000" d="M 189.171875 54.5 L 201.648438 54.5 L 209.320312 67.113281 L 216.988281 54.5 L 229.46875 54.5 L 229.46875 90.402344 L 217.554688 90.402344 L 217.554688 72.605469 L 209.320312 85.371094 L 209.117188 85.371094 L 200.878906 72.605469 L 200.878906 90.402344 L 189.171875 90.402344 Z M 189.171875 54.5 " fill-opacity="1" fill-rule="nonzero"/></g><g clip-path="url(#id5)"><path fill="#000000" d="M 235.425781 54.5 L 247.394531 54.5 L 247.394531 78.535156 L 264.222656 78.535156 L 264.222656 90.402344 L 235.425781 90.402344 Z M 235.425781 54.5 " fill-opacity="1" fill-rule="nonzero"/></g><path fill="#ffffff" d="M 187.269531 217.582031 L 216.265625 217.582031 L 213.53125 248.207031 L 187.269531 255.320312 L 187.269531 279.882812 L 235.539062 266.472656 L 235.890625 262.476562 L 241.429688 200.3125 L 242.003906 193.976562 L 187.269531 193.976562 Z M 187.269531 217.582031 " fill-opacity="1" fill-rule="nonzero"/><path fill="#ffffff" d="M 187.269531 169.730469 L 187.269531 169.789062 L 244.140625 169.789062 L 244.613281 164.480469 L 245.691406 152.511719 L 246.25 146.175781 L 187.269531 146.175781 Z M 187.269531 169.730469 " fill-opacity="1" fill-rule="nonzero"/></svg>