<svg xmlns="http://www.w3.org/2000/svg" xmlns:xlink="http://www.w3.org/1999/xlink" width="500" zoomAndPan="magnify" viewBox="0 0 375 374.999991" height="500" preserveAspectRatio="xMidYMid meet" version="1.0"><defs><clipPath id="id1"><path d="M 69.578125 69.578125 L 305.078125 69.578125 L 305.078125 305.078125 L 69.578125 305.078125 Z M 69.578125 69.578125 " clip-rule="nonzero"/></clipPath></defs><g clip-path="url(#id1)"><path fill="#ffd600" d="M 69.578125 69.578125 L 305.078125 69.578125 L 305.078125 305.078125 L 69.578125 305.078125 Z M 69.578125 69.578125 " fill-opacity="1" fill-rule="nonzero"/></g><path fill="#000001" d="M 223.554688 245.855469 C 228.082031 253.207031 233 260.253906 243.421875 260.253906 C 252.175781 260.253906 256.765625 255.902344 256.765625 249.882812 C 256.765625 242.683594 252.015625 240.125 242.386719 235.929688 L 237.109375 233.679688 C 221.875 227.21875 211.738281 219.121094 211.738281 202.011719 C 211.738281 186.246094 223.808594 174.25 242.667969 174.25 C 256.097656 174.25 265.75 178.902344 272.707031 191.082031 L 256.261719 201.59375 C 252.644531 195.132812 248.734375 192.585938 242.667969 192.585938 C 236.480469 192.585938 232.5625 196.492188 232.5625 201.59375 C 232.5625 207.898438 236.488281 210.453125 245.546875 214.355469 L 250.828125 216.605469 C 268.785156 224.253906 278.910156 232.066406 278.910156 249.621094 C 278.910156 268.542969 263.96875 278.910156 243.910156 278.910156 C 224.292969 278.910156 213.152344 269.066406 206.953125 256.878906 Z M 147.761719 246.390625 C 151.074219 252.316406 156.101562 256.878906 163.339844 256.878906 C 170.257812 256.878906 174.242188 254.144531 174.242188 243.511719 L 174.242188 174.242188 L 196.046875 174.242188 L 196.046875 246.863281 C 196.046875 268.886719 183.269531 278.910156 164.613281 278.910156 C 147.757812 278.910156 135.589844 267.488281 130.628906 256.878906 Z M 147.761719 246.390625 " fill-opacity="1" fill-rule="nonzero"/></svg>