<?xml version="1.0" standalone="no"?>
<!DOCTYPE svg PUBLIC "-//W3C//DTD SVG 20010904//EN"
 "http://www.w3.org/TR/2001/REC-SVG-20010904/DTD/svg10.dtd">
<svg version="1.0" xmlns="http://www.w3.org/2000/svg"
 width="825.000000pt" height="302.000000pt" viewBox="0 0 825.000000 302.000000"
 preserveAspectRatio="xMidYMid meet">

<g transform="translate(0.000000,302.000000) scale(0.100000,-0.100000)"
fill="#000000" stroke="none">
<path d="M1220 1505 l0 -225 130 0 130 0 0 40 0 40 -78 0 c-43 0 -81 2 -83 4
-2 3 -3 25 -1 50 l4 46 74 0 74 0 0 45 0 45 -73 0 c-41 0 -76 2 -78 4 -2 3 -3
25 -1 50 l4 46 79 0 79 0 0 40 0 40 -130 0 -130 0 0 -225z"/>
<path d="M2041 1658 c103 -146 103 -146 91 -171 -6 -12 -41 -64 -77 -114 l-66
-93 60 0 60 0 46 75 c26 41 50 75 54 75 3 0 26 -34 50 -75 l45 -75 59 0 c44 0
56 3 51 13 -4 6 -38 56 -76 110 -37 54 -68 100 -68 103 0 2 31 48 68 102 37
53 71 103 76 110 5 9 -7 12 -52 12 l-60 0 -42 -70 c-23 -39 -46 -73 -50 -75
-4 -3 -29 29 -55 70 l-46 75 -60 0 -60 0 52 -72z"/>
<path d="M3071 1708 c-5 -13 -45 -113 -90 -222 -45 -109 -81 -201 -81 -203 0
-2 23 -3 52 -1 50 3 51 4 67 46 l15 43 91 -3 90 -3 15 -42 14 -43 53 0 53 0
-21 53 c-11 28 -52 130 -91 225 l-71 172 -44 0 c-36 0 -45 -4 -52 -22z m83
-172 c14 -37 26 -72 26 -77 0 -5 -27 -9 -60 -9 l-59 0 25 68 c14 37 27 73 30
81 6 19 9 15 38 -63z"/>
<path d="M3905 1718 c-2 -7 -20 -98 -40 -203 -20 -104 -39 -200 -42 -212 -5
-22 -2 -23 51 -23 31 0 56 3 56 8 0 18 50 295 53 299 3 2 24 -66 48 -152 l42
-155 51 0 51 0 39 143 c21 78 42 148 46 156 4 8 12 -14 19 -55 6 -38 19 -108
27 -156 l16 -88 55 0 c47 0 54 2 49 18 -3 9 -21 103 -41 207 -20 105 -38 198
-41 208 -4 14 -17 17 -64 17 l-59 0 -21 -72 c-50 -169 -71 -238 -75 -238 -4 0
-45 131 -80 253 l-16 57 -60 0 c-39 0 -61 -4 -64 -12z"/>
<path d="M4930 1505 l0 -225 50 0 50 0 0 90 0 90 80 0 80 0 0 -90 0 -90 50 0
50 0 0 225 0 225 -50 0 -50 0 0 -90 0 -90 -80 0 -80 0 0 90 0 90 -50 0 -50 0
0 -225z"/>
<path d="M5822 1563 c3 -190 14 -226 75 -264 54 -34 155 -37 212 -7 81 42 86
54 89 259 l3 179 -50 0 -51 0 0 -160 c0 -147 -2 -162 -20 -180 -27 -27 -99
-27 -131 -1 -23 19 -24 25 -27 180 l-3 161 -51 0 -50 0 4 -167z"/>
<path d="M6730 1505 l0 -225 115 0 c159 0 205 26 205 117 0 55 -15 86 -52 107
-27 17 -28 19 -13 36 45 49 36 138 -18 170 -26 16 -51 20 -134 20 l-103 0 0
-225z m172 138 c39 -35 12 -93 -43 -93 -29 0 -29 1 -29 55 0 53 1 55 27 55 14
0 35 -7 45 -17z m26 -189 c26 -18 29 -60 5 -86 -11 -12 -30 -18 -60 -18 l-43
0 0 60 0 60 38 0 c21 0 48 -7 60 -16z"/>
</g>
</svg>
