<svg xmlns="http://www.w3.org/2000/svg" xmlns:xlink="http://www.w3.org/1999/xlink" width="500" zoomAndPan="magnify" viewBox="0 0 375 374.999991" height="500" preserveAspectRatio="xMidYMid meet" version="1.0"><defs><clipPath id="id1"><path d="M 295 174 L 346.5625 174 L 346.5625 232 L 295 232 Z M 295 174 " clip-rule="nonzero"/></clipPath><clipPath id="id2"><path d="M 28.5625 142 L 280 142 L 280 233 L 28.5625 233 Z M 28.5625 142 " clip-rule="nonzero"/></clipPath></defs><g clip-path="url(#id1)"><path fill="#83cd29" d="M 321.113281 174.386719 C 320.339844 174.386719 319.585938 174.546875 318.921875 174.925781 L 297.835938 187.121094 C 296.472656 187.90625 295.644531 189.394531 295.644531 190.976562 L 295.644531 215.324219 C 295.644531 216.90625 296.472656 218.390625 297.835938 219.179688 L 303.34375 222.359375 C 306.019531 223.679688 307.003906 223.660156 308.222656 223.660156 C 312.183594 223.660156 314.445312 221.25 314.445312 217.066406 L 314.445312 193.046875 C 314.445312 192.707031 314.152344 192.460938 313.820312 192.460938 L 311.175781 192.460938 C 310.839844 192.460938 310.550781 192.710938 310.550781 193.046875 L 310.550781 217.078125 C 310.550781 218.933594 308.621094 220.796875 305.492188 219.230469 L 299.769531 215.867188 C 299.566406 215.757812 299.410156 215.554688 299.410156 215.328125 L 299.410156 190.980469 C 299.410156 190.75 299.566406 190.515625 299.769531 190.398438 L 320.808594 178.246094 C 321.003906 178.132812 321.238281 178.132812 321.433594 178.246094 L 342.472656 190.398438 C 342.675781 190.519531 342.832031 190.746094 342.832031 190.980469 L 342.832031 215.328125 C 342.832031 215.5625 342.714844 215.800781 342.519531 215.914062 L 321.433594 228.066406 C 321.25 228.171875 321 228.171875 320.808594 228.066406 L 315.390625 224.835938 C 315.230469 224.742188 315.011719 224.75 314.855469 224.835938 C 313.359375 225.683594 313.078125 225.785156 311.675781 226.269531 C 311.332031 226.390625 310.804688 226.578125 311.855469 227.167969 L 318.929688 231.34375 C 319.601562 231.734375 320.351562 231.925781 321.125 231.925781 C 321.902344 231.925781 322.644531 231.738281 323.316406 231.34375 L 344.402344 219.191406 C 345.765625 218.398438 346.59375 216.917969 346.59375 215.335938 L 346.59375 190.988281 C 346.59375 189.40625 345.765625 187.921875 344.402344 187.132812 L 323.316406 174.9375 C 322.65625 174.558594 321.898438 174.398438 321.125 174.398438 Z M 326.753906 191.785156 C 320.75 191.785156 317.175781 194.34375 317.175781 198.601562 C 317.175781 203.210938 320.726562 204.484375 326.488281 205.058594 C 333.378906 205.734375 333.917969 206.746094 333.917969 208.105469 C 333.917969 210.464844 332.042969 211.46875 327.605469 211.46875 C 322.035156 211.46875 320.808594 210.074219 320.398438 207.292969 C 320.351562 206.996094 320.121094 206.753906 319.816406 206.753906 L 317.082031 206.753906 C 316.910156 206.757812 316.761719 206.820312 316.640625 206.945312 C 316.519531 207.066406 316.457031 207.210938 316.453125 207.382812 C 316.453125 210.9375 318.382812 215.140625 327.601562 215.140625 C 334.273438 215.140625 338.121094 212.523438 338.121094 207.921875 C 338.121094 203.371094 335.011719 202.140625 328.539062 201.285156 C 322.007812 200.410156 321.378906 199.996094 321.378906 198.460938 C 321.378906 197.191406 321.90625 195.5 326.75 195.5 C 331.074219 195.5 332.675781 196.433594 333.332031 199.355469 C 333.386719 199.628906 333.628906 199.855469 333.914062 199.855469 L 336.648438 199.855469 C 336.816406 199.855469 336.980469 199.75 337.097656 199.628906 C 337.210938 199.5 337.292969 199.355469 337.277344 199.179688 C 336.855469 194.148438 333.503906 191.78125 326.757812 191.78125 Z M 326.753906 191.785156 " fill-opacity="1" fill-rule="nonzero"/></g><g clip-path="url(#id2)"><path fill="#404137" d="M 197.164062 142.46875 C 196.921875 142.46875 196.699219 142.53125 196.492188 142.648438 C 196.046875 142.910156 195.824219 143.300781 195.820312 143.816406 L 195.820312 178.117188 C 195.820312 178.453125 195.664062 178.753906 195.371094 178.921875 C 195.058594 179.105469 194.746094 179.105469 194.433594 178.921875 L 188.835938 175.695312 C 188.421875 175.453125 187.972656 175.335938 187.492188 175.335938 C 187.015625 175.335938 186.566406 175.453125 186.152344 175.695312 L 163.816406 188.609375 C 162.980469 189.089844 162.472656 190.019531 162.472656 190.984375 L 162.472656 216.8125 C 162.472656 217.292969 162.589844 217.742188 162.832031 218.15625 C 163.070312 218.574219 163.398438 218.902344 163.816406 219.144531 L 186.152344 232.054688 C 186.566406 232.296875 187.015625 232.417969 187.496094 232.417969 C 187.976562 232.417969 188.421875 232.296875 188.839844 232.054688 L 211.175781 219.144531 C 211.589844 218.902344 211.917969 218.574219 212.160156 218.15625 C 212.398438 217.742188 212.519531 217.292969 212.519531 216.8125 L 212.519531 152.425781 C 212.519531 151.445312 211.984375 150.527344 211.132812 150.046875 L 197.835938 142.601562 C 197.625 142.484375 197.394531 142.464844 197.164062 142.46875 Z M 53.46875 174.707031 C 53.042969 174.726562 52.644531 174.800781 52.261719 175.023438 L 29.925781 187.9375 C 29.507812 188.175781 29.179688 188.503906 28.941406 188.921875 C 28.699219 189.335938 28.582031 189.785156 28.582031 190.265625 L 28.628906 224.925781 C 28.628906 225.410156 28.875 225.855469 29.300781 226.09375 C 29.714844 226.34375 30.230469 226.34375 30.640625 226.09375 L 43.890625 218.46875 C 44.730469 217.972656 45.28125 217.101562 45.28125 216.140625 L 45.28125 199.949219 C 45.28125 198.984375 45.785156 198.101562 46.625 197.621094 L 52.265625 194.347656 C 52.679688 194.105469 53.125 193.984375 53.605469 193.988281 C 54.085938 193.984375 54.535156 194.105469 54.949219 194.347656 L 60.585938 197.617188 C 61.421875 198.097656 61.929688 198.984375 61.929688 199.949219 L 61.929688 216.136719 C 61.929688 217.097656 62.488281 217.972656 63.316406 218.464844 L 76.566406 226.089844 C 76.984375 226.339844 77.496094 226.339844 77.910156 226.089844 C 78.320312 225.851562 78.582031 225.40625 78.582031 224.925781 L 78.625 190.265625 C 78.628906 189.78125 78.511719 189.332031 78.269531 188.917969 C 78.03125 188.5 77.703125 188.171875 77.285156 187.933594 L 54.949219 175.023438 C 54.570312 174.800781 54.167969 174.726562 53.738281 174.710938 L 53.472656 174.710938 Z M 254.191406 175.023438 C 253.710938 175.019531 253.261719 175.140625 252.847656 175.382812 L 230.507812 188.296875 C 229.675781 188.777344 229.164062 189.660156 229.164062 190.625 L 229.164062 216.453125 C 229.164062 217.421875 229.710938 218.304688 230.554688 218.78125 L 252.710938 231.433594 C 253.527344 231.902344 254.527344 231.9375 255.351562 231.476562 L 268.78125 223.988281 C 269.207031 223.753906 269.496094 223.308594 269.496094 222.824219 C 269.496094 222.335938 269.246094 221.898438 268.824219 221.660156 L 246.351562 208.746094 C 245.933594 208.503906 245.636719 208.019531 245.636719 207.535156 L 245.636719 199.457031 C 245.636719 198.976562 245.9375 198.53125 246.351562 198.292969 L 253.335938 194.257812 C 253.75 194.015625 254.261719 194.015625 254.679688 194.257812 L 261.679688 198.292969 C 262.128906 198.550781 262.351562 198.9375 262.351562 199.457031 L 262.351562 205.824219 C 262.347656 206.34375 262.574219 206.730469 263.019531 206.988281 C 263.441406 207.230469 263.945312 207.234375 264.363281 206.988281 L 277.746094 199.1875 C 278.578125 198.703125 279.089844 197.820312 279.089844 196.855469 L 279.089844 190.625 C 279.089844 190.144531 278.972656 189.695312 278.730469 189.28125 C 278.492188 188.863281 278.164062 188.535156 277.75 188.292969 L 255.546875 175.378906 C 255.128906 175.140625 254.683594 175.019531 254.203125 175.019531 Z M 187.402344 194.304688 C 187.527344 194.304688 187.648438 194.332031 187.761719 194.394531 L 195.414062 198.832031 C 195.621094 198.953125 195.773438 199.175781 195.773438 199.414062 L 195.773438 208.292969 C 195.773438 208.535156 195.625 208.753906 195.414062 208.875 L 187.761719 213.3125 C 187.550781 213.433594 187.296875 213.433594 187.085938 213.3125 L 179.433594 208.875 C 179.226562 208.753906 179.074219 208.53125 179.074219 208.292969 L 179.074219 199.417969 C 179.074219 199.175781 179.226562 198.957031 179.433594 198.835938 L 187.085938 194.394531 C 187.191406 194.335938 187.285156 194.308594 187.402344 194.308594 Z M 187.402344 194.304688 " fill-opacity="1" fill-rule="nonzero"/></g><path fill="#83cd29" d="M 120.570312 174.886719 C 120.089844 174.886719 119.640625 175.007812 119.226562 175.246094 L 96.886719 188.113281 C 96.054688 188.597656 95.546875 189.527344 95.546875 190.492188 L 95.546875 216.316406 C 95.542969 216.796875 95.664062 217.246094 95.902344 217.664062 C 96.144531 218.082031 96.472656 218.410156 96.886719 218.648438 L 119.226562 231.5625 C 119.640625 231.804688 120.089844 231.925781 120.570312 231.925781 C 121.046875 231.925781 121.496094 231.804688 121.910156 231.5625 L 144.25 218.648438 C 144.664062 218.410156 144.992188 218.078125 145.234375 217.664062 C 145.472656 217.246094 145.59375 216.796875 145.59375 216.316406 L 145.59375 190.492188 C 145.59375 189.527344 145.085938 188.597656 144.25 188.117188 L 121.910156 175.246094 C 121.496094 175.007812 121.046875 174.886719 120.566406 174.890625 Z M 254.144531 197.933594 C 254.058594 197.933594 253.957031 197.933594 253.878906 197.976562 L 249.582031 200.488281 C 249.40625 200.585938 249.316406 200.738281 249.3125 200.9375 L 249.3125 205.871094 C 249.3125 206.054688 249.417969 206.226562 249.582031 206.320312 L 253.878906 208.785156 C 254.042969 208.886719 254.207031 208.886719 254.367188 208.785156 L 258.667969 206.320312 C 258.824219 206.226562 258.933594 206.054688 258.933594 205.871094 L 258.933594 200.9375 C 258.933594 200.75 258.824219 200.582031 258.667969 200.488281 L 254.367188 197.976562 C 254.289062 197.929688 254.234375 197.933594 254.144531 197.933594 Z M 254.144531 197.933594 " fill-opacity="1" fill-rule="nonzero"/></svg>